# xmcd
#
# Track frame offsets:
#	150
#	17850
#	36945
#	56565
#	75141
#	95040
#	116193
#	138241
#	152149
#	169421
#	188376
#	209705
#
# Disc length: 3063 seconds
#
# Revision: 0
# Processed by: cddbd v1.5.2PL0 Copyright (c) Steve Scherf et al.
# Submitted via: EZCDAudioConverter 1.2.3.1
#
DISCID=a10bf50c
DTITLE=彭羚 - 未完的小說
DYEAR=1994
DGENRE=Pop
TTITLE0=彭羚 - 奔向你
TTITLE1=彭羚 - 愛過痛過亦願等
TTITLE2=彭羚 - 彷彿是初戀
TTITLE3=彭羚 - 一世愛着你
TTITLE4=彭羚 - 有緣遇上
TTITLE5=彭羚 - Let's Stay Awhile
TTITLE6=彭羚 - 三人世界
TTITLE7=彭羚 - 讓我跟你走
TTITLE8=彭羚 - 未完的小說
TTITLE9=彭羚 - 不許眼兒再下雨
TTITLE10=彭羚 - 情難自制
TTITLE11=彭羚 and 巫啟賢 - 讓我跟你走
EXTD=
EXTT0=
EXTT1=
EXTT2=
EXTT3=
EXTT4=
EXTT5=
EXTT6=
EXTT7=
EXTT8=
EXTT9=
EXTT10=
EXTT11=
PLAYORDER=
